# xmcd
#
# Track frame offsets:
#	151
#	13224
#	28455
#	43154
#	57977
#	71254
#	93267
#	105830
#	128685
#	142112
#
# Disc length: 2197 seconds
#
# Revision: 0
# Processed by: cddbd v1.5.2PL0 Copyright (c) Steve Scherf et al.
# Submitted via: dBpowerAMP V4.0
#
DISCID=8808930a
DTITLE=Barry Preston - Country in The USA
DYEAR=2002
DGENRE=Country
TTITLE0=Where's Donna Reed (When You Need Her)
TTITLE1=If it Weren't for Broken Hearts
TTITLE2=Jack n' Jill
TTITLE3=My Lady, My Lover, My Friend
TTITLE4=She's Cheatin' on Us Again
TTITLE5=When I Lay Down Next to You (WWII Tribute)
TTITLE6=What am I Supposed to Do
TTITLE7=A Woman Like You, A Man Like Me
TTITLE8=A Minute to Kill
TTITLE9=In Your Own Time
EXTD=
EXTT0=
EXTT1=
EXTT2=
EXTT3=
EXTT4=
EXTT5=
EXTT6=
EXTT7=
EXTT8=
EXTT9=
PLAYORDER=
